<mxfile host="app.diagrams.net" agent="Mozilla/5.0 (Windows NT 10.0; Win64; x64) AppleWebKit/537.36 (KHTML, like Gecko) Chrome/135.0.0.0 Safari/537.36" version="26.2.12">
  <diagram name="Page-1" id="_CUemki0fZugXvntiPkS">
    <mxGraphModel grid="1" page="1" gridSize="10" guides="1" tooltips="1" connect="1" arrows="1" fold="1" pageScale="1" pageWidth="1100" pageHeight="850" math="0" shadow="0">
      <root>
        <mxCell id="0" />
        <mxCell id="1" parent="0" />
        <mxCell id="GROmLuucrpIzbbb9Cq5b-3" value="" style="rounded=0;whiteSpace=wrap;html=1;fillColor=default;" vertex="1" parent="1">
          <mxGeometry x="660" y="20" width="505" height="395" as="geometry" />
        </mxCell>
        <mxCell id="GROmLuucrpIzbbb9Cq5b-4" style="edgeStyle=orthogonalEdgeStyle;rounded=0;orthogonalLoop=1;jettySize=auto;html=1;exitX=0.5;exitY=1;exitDx=0;exitDy=0;entryX=0.5;entryY=0;entryDx=0;entryDy=0;fontFamily=Times New Roman;" edge="1" parent="1" source="GROmLuucrpIzbbb9Cq5b-6" target="GROmLuucrpIzbbb9Cq5b-8">
          <mxGeometry relative="1" as="geometry" />
        </mxCell>
        <mxCell id="GROmLuucrpIzbbb9Cq5b-5" style="edgeStyle=orthogonalEdgeStyle;rounded=0;orthogonalLoop=1;jettySize=auto;html=1;entryX=0;entryY=0.5;entryDx=0;entryDy=0;fontFamily=Times New Roman;" edge="1" parent="1" source="GROmLuucrpIzbbb9Cq5b-6" target="GROmLuucrpIzbbb9Cq5b-10">
          <mxGeometry relative="1" as="geometry" />
        </mxCell>
        <mxCell id="GROmLuucrpIzbbb9Cq5b-6" value="Input&amp;nbsp;&lt;div&gt;Username&lt;/div&gt;" style="shape=parallelogram;perimeter=parallelogramPerimeter;whiteSpace=wrap;html=1;fixedSize=1;fontFamily=Times New Roman;" vertex="1" parent="1">
          <mxGeometry x="675" y="105" width="120" height="30" as="geometry" />
        </mxCell>
        <mxCell id="GROmLuucrpIzbbb9Cq5b-7" style="edgeStyle=orthogonalEdgeStyle;rounded=0;orthogonalLoop=1;jettySize=auto;html=1;entryX=0;entryY=0.5;entryDx=0;entryDy=0;fontFamily=Times New Roman;" edge="1" parent="1" source="GROmLuucrpIzbbb9Cq5b-8" target="GROmLuucrpIzbbb9Cq5b-10">
          <mxGeometry relative="1" as="geometry" />
        </mxCell>
        <mxCell id="GROmLuucrpIzbbb9Cq5b-8" value="Input&amp;nbsp;&lt;div&gt;Password&lt;/div&gt;" style="shape=parallelogram;perimeter=parallelogramPerimeter;whiteSpace=wrap;html=1;fixedSize=1;fontFamily=Times New Roman;" vertex="1" parent="1">
          <mxGeometry x="675" y="155" width="120" height="30" as="geometry" />
        </mxCell>
        <mxCell id="GROmLuucrpIzbbb9Cq5b-9" style="edgeStyle=orthogonalEdgeStyle;rounded=0;orthogonalLoop=1;jettySize=auto;html=1;entryX=0;entryY=0.5;entryDx=0;entryDy=0;fontFamily=Times New Roman;" edge="1" parent="1" source="GROmLuucrpIzbbb9Cq5b-10" target="GROmLuucrpIzbbb9Cq5b-13">
          <mxGeometry relative="1" as="geometry" />
        </mxCell>
        <mxCell id="GROmLuucrpIzbbb9Cq5b-10" value="Authenticator" style="rounded=1;whiteSpace=wrap;html=1;fontFamily=Times New Roman;" vertex="1" parent="1">
          <mxGeometry x="845" y="125" width="100" height="40" as="geometry" />
        </mxCell>
        <mxCell id="GROmLuucrpIzbbb9Cq5b-11" style="edgeStyle=orthogonalEdgeStyle;rounded=0;orthogonalLoop=1;jettySize=auto;html=1;entryX=0.5;entryY=0;entryDx=0;entryDy=0;fontFamily=Times New Roman;" edge="1" parent="1" source="GROmLuucrpIzbbb9Cq5b-13" target="GROmLuucrpIzbbb9Cq5b-6">
          <mxGeometry relative="1" as="geometry">
            <Array as="points">
              <mxPoint x="1035" y="85" />
              <mxPoint x="735" y="85" />
            </Array>
          </mxGeometry>
        </mxCell>
        <mxCell id="GROmLuucrpIzbbb9Cq5b-12" value="" style="edgeStyle=orthogonalEdgeStyle;rounded=0;orthogonalLoop=1;jettySize=auto;html=1;" edge="1" parent="1" source="GROmLuucrpIzbbb9Cq5b-13" target="GROmLuucrpIzbbb9Cq5b-17">
          <mxGeometry relative="1" as="geometry" />
        </mxCell>
        <mxCell id="GROmLuucrpIzbbb9Cq5b-13" value="Authentication&amp;nbsp;&lt;div&gt;Status&lt;/div&gt;" style="shape=parallelogram;perimeter=parallelogramPerimeter;whiteSpace=wrap;html=1;fixedSize=1;fontFamily=Times New Roman;" vertex="1" parent="1">
          <mxGeometry x="970" y="125" width="120" height="40" as="geometry" />
        </mxCell>
        <mxCell id="GROmLuucrpIzbbb9Cq5b-14" value="False" style="text;html=1;align=center;verticalAlign=middle;resizable=0;points=[];autosize=1;strokeColor=none;fillColor=none;fontFamily=Times New Roman;" vertex="1" parent="1">
          <mxGeometry x="1035" y="95" width="50" height="30" as="geometry" />
        </mxCell>
        <mxCell id="GROmLuucrpIzbbb9Cq5b-15" value="True" style="text;html=1;align=center;verticalAlign=middle;resizable=0;points=[];autosize=1;strokeColor=none;fillColor=none;fontFamily=Times New Roman;" vertex="1" parent="1">
          <mxGeometry x="1025" y="205" width="50" height="30" as="geometry" />
        </mxCell>
        <mxCell id="GROmLuucrpIzbbb9Cq5b-16" value="" style="edgeStyle=orthogonalEdgeStyle;rounded=0;orthogonalLoop=1;jettySize=auto;html=1;fontFamily=Times New Roman;" edge="1" parent="1" source="GROmLuucrpIzbbb9Cq5b-17" target="GROmLuucrpIzbbb9Cq5b-19">
          <mxGeometry relative="1" as="geometry" />
        </mxCell>
        <mxCell id="GROmLuucrpIzbbb9Cq5b-17" value="Input Machine Parameters" style="shape=parallelogram;perimeter=parallelogramPerimeter;whiteSpace=wrap;html=1;fixedSize=1;fontFamily=Times New Roman;" vertex="1" parent="1">
          <mxGeometry x="970" y="205" width="120" height="40" as="geometry" />
        </mxCell>
        <mxCell id="GROmLuucrpIzbbb9Cq5b-18" value="" style="edgeStyle=orthogonalEdgeStyle;rounded=0;orthogonalLoop=1;jettySize=auto;html=1;fontFamily=Times New Roman;" edge="1" parent="1" source="GROmLuucrpIzbbb9Cq5b-19" target="GROmLuucrpIzbbb9Cq5b-21">
          <mxGeometry relative="1" as="geometry" />
        </mxCell>
        <mxCell id="GROmLuucrpIzbbb9Cq5b-19" value="Preprocess&amp;nbsp;&lt;div&gt;Input&lt;/div&gt;" style="rounded=1;whiteSpace=wrap;html=1;fontFamily=Times New Roman;" vertex="1" parent="1">
          <mxGeometry x="825" y="205" width="100" height="40" as="geometry" />
        </mxCell>
        <mxCell id="GROmLuucrpIzbbb9Cq5b-20" value="" style="edgeStyle=orthogonalEdgeStyle;rounded=0;orthogonalLoop=1;jettySize=auto;html=1;fontFamily=Times New Roman;" edge="1" parent="1" source="GROmLuucrpIzbbb9Cq5b-21" target="GROmLuucrpIzbbb9Cq5b-23">
          <mxGeometry relative="1" as="geometry" />
        </mxCell>
        <mxCell id="GROmLuucrpIzbbb9Cq5b-21" value="Stacking Classifier" style="rounded=1;whiteSpace=wrap;html=1;fontFamily=Times New Roman;" vertex="1" parent="1">
          <mxGeometry x="695" y="205" width="100" height="40" as="geometry" />
        </mxCell>
        <mxCell id="GROmLuucrpIzbbb9Cq5b-22" style="edgeStyle=orthogonalEdgeStyle;rounded=0;orthogonalLoop=1;jettySize=auto;html=1;entryX=0.5;entryY=0;entryDx=0;entryDy=0;fontFamily=Times New Roman;" edge="1" parent="1" source="GROmLuucrpIzbbb9Cq5b-23" target="GROmLuucrpIzbbb9Cq5b-27">
          <mxGeometry relative="1" as="geometry" />
        </mxCell>
        <mxCell id="GROmLuucrpIzbbb9Cq5b-23" value="Prediction&lt;div&gt;(Class Name)&lt;/div&gt;" style="shape=parallelogram;perimeter=parallelogramPerimeter;whiteSpace=wrap;html=1;fixedSize=1;fontFamily=Times New Roman;" vertex="1" parent="1">
          <mxGeometry x="685" y="275" width="120" height="40" as="geometry" />
        </mxCell>
        <mxCell id="GROmLuucrpIzbbb9Cq5b-24" style="edgeStyle=orthogonalEdgeStyle;rounded=0;orthogonalLoop=1;jettySize=auto;html=1;exitX=0.5;exitY=1;exitDx=0;exitDy=0;entryX=0.5;entryY=0;entryDx=0;entryDy=0;fontFamily=Times New Roman;" edge="1" parent="1" source="GROmLuucrpIzbbb9Cq5b-25" target="GROmLuucrpIzbbb9Cq5b-27">
          <mxGeometry relative="1" as="geometry" />
        </mxCell>
        <mxCell id="GROmLuucrpIzbbb9Cq5b-25" value="Detailed&amp;nbsp;&lt;div&gt;Prompt&lt;/div&gt;" style="shape=parallelogram;perimeter=parallelogramPerimeter;whiteSpace=wrap;html=1;fixedSize=1;fontFamily=Times New Roman;" vertex="1" parent="1">
          <mxGeometry x="845" y="275" width="120" height="40" as="geometry" />
        </mxCell>
        <mxCell id="GROmLuucrpIzbbb9Cq5b-26" value="" style="edgeStyle=orthogonalEdgeStyle;rounded=0;orthogonalLoop=1;jettySize=auto;html=1;" edge="1" parent="1" source="GROmLuucrpIzbbb9Cq5b-27" target="GROmLuucrpIzbbb9Cq5b-29">
          <mxGeometry relative="1" as="geometry" />
        </mxCell>
        <mxCell id="GROmLuucrpIzbbb9Cq5b-27" value="Payload" style="shape=parallelogram;perimeter=parallelogramPerimeter;whiteSpace=wrap;html=1;fixedSize=1;fontFamily=Times New Roman;" vertex="1" parent="1">
          <mxGeometry x="765" y="355" width="120" height="40" as="geometry" />
        </mxCell>
        <mxCell id="GROmLuucrpIzbbb9Cq5b-28" style="edgeStyle=orthogonalEdgeStyle;rounded=0;orthogonalLoop=1;jettySize=auto;html=1;fontFamily=Times New Roman;" edge="1" parent="1" source="GROmLuucrpIzbbb9Cq5b-29" target="GROmLuucrpIzbbb9Cq5b-31">
          <mxGeometry relative="1" as="geometry" />
        </mxCell>
        <mxCell id="GROmLuucrpIzbbb9Cq5b-29" value="Llama-3.1-Nemotron 70B" style="rounded=1;whiteSpace=wrap;html=1;fontFamily=Times New Roman;" vertex="1" parent="1">
          <mxGeometry x="915" y="355" width="100" height="40" as="geometry" />
        </mxCell>
        <mxCell id="GROmLuucrpIzbbb9Cq5b-30" value="" style="edgeStyle=orthogonalEdgeStyle;rounded=0;orthogonalLoop=1;jettySize=auto;html=1;fontFamily=Times New Roman;" edge="1" parent="1" source="GROmLuucrpIzbbb9Cq5b-31" target="GROmLuucrpIzbbb9Cq5b-32">
          <mxGeometry relative="1" as="geometry" />
        </mxCell>
        <mxCell id="GROmLuucrpIzbbb9Cq5b-31" value="Diagnostic&amp;nbsp;&lt;div&gt;Report&lt;/div&gt;" style="shape=parallelogram;perimeter=parallelogramPerimeter;whiteSpace=wrap;html=1;fixedSize=1;fontFamily=Times New Roman;rounded=1;strokeWidth=3;" vertex="1" parent="1">
          <mxGeometry x="1035" y="355" width="120" height="40" as="geometry" />
        </mxCell>
        <mxCell id="GROmLuucrpIzbbb9Cq5b-32" value="Display&amp;nbsp;&lt;div&gt;Report&lt;/div&gt;" style="rounded=1;whiteSpace=wrap;html=1;fontFamily=Times New Roman;" vertex="1" parent="1">
          <mxGeometry x="1045" y="285" width="100" height="40" as="geometry" />
        </mxCell>
        <mxCell id="GROmLuucrpIzbbb9Cq5b-33" value="&lt;font style=&quot;font-size: 20px;&quot; face=&quot;Times New Roman&quot;&gt;&lt;u&gt;FailGuard AI&lt;/u&gt;&lt;/font&gt;" style="text;html=1;align=center;verticalAlign=middle;resizable=0;points=[];autosize=1;strokeColor=none;fillColor=none;" vertex="1" parent="1">
          <mxGeometry x="847.5" y="20" width="130" height="40" as="geometry" />
        </mxCell>
        <mxCell id="GROmLuucrpIzbbb9Cq5b-34" value="True" style="text;html=1;align=center;verticalAlign=middle;resizable=0;points=[];autosize=1;strokeColor=none;fillColor=none;fontFamily=Times New Roman;" vertex="1" parent="1">
          <mxGeometry x="1025" y="175" width="50" height="30" as="geometry" />
        </mxCell>
        <mxCell id="GROmLuucrpIzbbb9Cq5b-37" value="" style="group" connectable="0" vertex="1" parent="1">
          <mxGeometry x="60" y="30" width="505" height="395" as="geometry" />
        </mxCell>
        <mxCell id="GROmLuucrpIzbbb9Cq5b-38" value="" style="rounded=0;whiteSpace=wrap;html=1;" vertex="1" parent="GROmLuucrpIzbbb9Cq5b-37">
          <mxGeometry width="505" height="395" as="geometry" />
        </mxCell>
        <mxCell id="GROmLuucrpIzbbb9Cq5b-39" style="edgeStyle=orthogonalEdgeStyle;rounded=0;orthogonalLoop=1;jettySize=auto;html=1;exitX=0.5;exitY=1;exitDx=0;exitDy=0;entryX=0.5;entryY=0;entryDx=0;entryDy=0;fontFamily=Times New Roman;" edge="1" parent="GROmLuucrpIzbbb9Cq5b-37" source="GROmLuucrpIzbbb9Cq5b-41" target="GROmLuucrpIzbbb9Cq5b-43">
          <mxGeometry relative="1" as="geometry" />
        </mxCell>
        <mxCell id="GROmLuucrpIzbbb9Cq5b-40" style="edgeStyle=orthogonalEdgeStyle;rounded=0;orthogonalLoop=1;jettySize=auto;html=1;entryX=0;entryY=0.5;entryDx=0;entryDy=0;fontFamily=Times New Roman;" edge="1" parent="GROmLuucrpIzbbb9Cq5b-37" source="GROmLuucrpIzbbb9Cq5b-41" target="GROmLuucrpIzbbb9Cq5b-45">
          <mxGeometry relative="1" as="geometry" />
        </mxCell>
        <mxCell id="GROmLuucrpIzbbb9Cq5b-41" value="Input&amp;nbsp;&lt;div&gt;Username&lt;/div&gt;" style="shape=parallelogram;perimeter=parallelogramPerimeter;whiteSpace=wrap;html=1;fixedSize=1;fontFamily=Times New Roman;fillColor=#fff2cc;strokeColor=#d6b656;" vertex="1" parent="GROmLuucrpIzbbb9Cq5b-37">
          <mxGeometry x="15" y="85" width="120" height="30" as="geometry" />
        </mxCell>
        <mxCell id="GROmLuucrpIzbbb9Cq5b-42" style="edgeStyle=orthogonalEdgeStyle;rounded=0;orthogonalLoop=1;jettySize=auto;html=1;entryX=0;entryY=0.5;entryDx=0;entryDy=0;fontFamily=Times New Roman;" edge="1" parent="GROmLuucrpIzbbb9Cq5b-37" source="GROmLuucrpIzbbb9Cq5b-43" target="GROmLuucrpIzbbb9Cq5b-45">
          <mxGeometry relative="1" as="geometry" />
        </mxCell>
        <mxCell id="GROmLuucrpIzbbb9Cq5b-43" value="Input&amp;nbsp;&lt;div&gt;Password&lt;/div&gt;" style="shape=parallelogram;perimeter=parallelogramPerimeter;whiteSpace=wrap;html=1;fixedSize=1;fontFamily=Times New Roman;fillColor=#fff2cc;strokeColor=#d6b656;" vertex="1" parent="GROmLuucrpIzbbb9Cq5b-37">
          <mxGeometry x="15" y="135" width="120" height="30" as="geometry" />
        </mxCell>
        <mxCell id="GROmLuucrpIzbbb9Cq5b-44" style="edgeStyle=orthogonalEdgeStyle;rounded=0;orthogonalLoop=1;jettySize=auto;html=1;entryX=0;entryY=0.5;entryDx=0;entryDy=0;fontFamily=Times New Roman;" edge="1" parent="GROmLuucrpIzbbb9Cq5b-37" source="GROmLuucrpIzbbb9Cq5b-45" target="GROmLuucrpIzbbb9Cq5b-48">
          <mxGeometry relative="1" as="geometry" />
        </mxCell>
        <mxCell id="GROmLuucrpIzbbb9Cq5b-45" value="Authenticator" style="rounded=1;whiteSpace=wrap;html=1;fontFamily=Times New Roman;fillColor=#dae8fc;strokeColor=#6c8ebf;" vertex="1" parent="GROmLuucrpIzbbb9Cq5b-37">
          <mxGeometry x="185" y="105" width="100" height="40" as="geometry" />
        </mxCell>
        <mxCell id="GROmLuucrpIzbbb9Cq5b-46" style="edgeStyle=orthogonalEdgeStyle;rounded=0;orthogonalLoop=1;jettySize=auto;html=1;entryX=0.5;entryY=0;entryDx=0;entryDy=0;fontFamily=Times New Roman;" edge="1" parent="GROmLuucrpIzbbb9Cq5b-37" source="GROmLuucrpIzbbb9Cq5b-48" target="GROmLuucrpIzbbb9Cq5b-41">
          <mxGeometry relative="1" as="geometry">
            <Array as="points">
              <mxPoint x="375" y="65" />
              <mxPoint x="75" y="65" />
            </Array>
          </mxGeometry>
        </mxCell>
        <mxCell id="GROmLuucrpIzbbb9Cq5b-47" value="" style="edgeStyle=orthogonalEdgeStyle;rounded=0;orthogonalLoop=1;jettySize=auto;html=1;" edge="1" parent="GROmLuucrpIzbbb9Cq5b-37" source="GROmLuucrpIzbbb9Cq5b-48" target="GROmLuucrpIzbbb9Cq5b-52">
          <mxGeometry relative="1" as="geometry" />
        </mxCell>
        <mxCell id="GROmLuucrpIzbbb9Cq5b-48" value="Authentication&amp;nbsp;&lt;div&gt;Status&lt;/div&gt;" style="shape=parallelogram;perimeter=parallelogramPerimeter;whiteSpace=wrap;html=1;fixedSize=1;fontFamily=Times New Roman;fillColor=#fff2cc;strokeColor=#d6b656;" vertex="1" parent="GROmLuucrpIzbbb9Cq5b-37">
          <mxGeometry x="310" y="105" width="120" height="40" as="geometry" />
        </mxCell>
        <mxCell id="GROmLuucrpIzbbb9Cq5b-49" value="False" style="text;html=1;align=center;verticalAlign=middle;resizable=0;points=[];autosize=1;strokeColor=none;fillColor=none;fontFamily=Times New Roman;" vertex="1" parent="GROmLuucrpIzbbb9Cq5b-37">
          <mxGeometry x="375" y="75" width="50" height="30" as="geometry" />
        </mxCell>
        <mxCell id="GROmLuucrpIzbbb9Cq5b-50" value="True" style="text;html=1;align=center;verticalAlign=middle;resizable=0;points=[];autosize=1;strokeColor=none;fillColor=none;fontFamily=Times New Roman;" vertex="1" parent="GROmLuucrpIzbbb9Cq5b-37">
          <mxGeometry x="365" y="185" width="50" height="30" as="geometry" />
        </mxCell>
        <mxCell id="GROmLuucrpIzbbb9Cq5b-51" value="" style="edgeStyle=orthogonalEdgeStyle;rounded=0;orthogonalLoop=1;jettySize=auto;html=1;fontFamily=Times New Roman;" edge="1" parent="GROmLuucrpIzbbb9Cq5b-37" source="GROmLuucrpIzbbb9Cq5b-52" target="GROmLuucrpIzbbb9Cq5b-54">
          <mxGeometry relative="1" as="geometry" />
        </mxCell>
        <mxCell id="GROmLuucrpIzbbb9Cq5b-52" value="Input Machine Parameters" style="shape=parallelogram;perimeter=parallelogramPerimeter;whiteSpace=wrap;html=1;fixedSize=1;fontFamily=Times New Roman;fillColor=#ffe6cc;strokeColor=#d79b00;" vertex="1" parent="GROmLuucrpIzbbb9Cq5b-37">
          <mxGeometry x="310" y="185" width="120" height="40" as="geometry" />
        </mxCell>
        <mxCell id="GROmLuucrpIzbbb9Cq5b-53" value="" style="edgeStyle=orthogonalEdgeStyle;rounded=0;orthogonalLoop=1;jettySize=auto;html=1;fontFamily=Times New Roman;" edge="1" parent="GROmLuucrpIzbbb9Cq5b-37" source="GROmLuucrpIzbbb9Cq5b-54" target="GROmLuucrpIzbbb9Cq5b-56">
          <mxGeometry relative="1" as="geometry" />
        </mxCell>
        <mxCell id="GROmLuucrpIzbbb9Cq5b-54" value="Preprocess&amp;nbsp;&lt;div&gt;Input&lt;/div&gt;" style="rounded=1;whiteSpace=wrap;html=1;fontFamily=Times New Roman;fillColor=#dae8fc;strokeColor=#6c8ebf;" vertex="1" parent="GROmLuucrpIzbbb9Cq5b-37">
          <mxGeometry x="165" y="185" width="100" height="40" as="geometry" />
        </mxCell>
        <mxCell id="GROmLuucrpIzbbb9Cq5b-55" value="" style="edgeStyle=orthogonalEdgeStyle;rounded=0;orthogonalLoop=1;jettySize=auto;html=1;fontFamily=Times New Roman;" edge="1" parent="GROmLuucrpIzbbb9Cq5b-37" source="GROmLuucrpIzbbb9Cq5b-56" target="GROmLuucrpIzbbb9Cq5b-58">
          <mxGeometry relative="1" as="geometry" />
        </mxCell>
        <mxCell id="GROmLuucrpIzbbb9Cq5b-56" value="Stacking Classifier" style="rounded=1;whiteSpace=wrap;html=1;fontFamily=Times New Roman;fillColor=#dae8fc;strokeColor=#6c8ebf;" vertex="1" parent="GROmLuucrpIzbbb9Cq5b-37">
          <mxGeometry x="35" y="185" width="100" height="40" as="geometry" />
        </mxCell>
        <mxCell id="GROmLuucrpIzbbb9Cq5b-57" style="edgeStyle=orthogonalEdgeStyle;rounded=0;orthogonalLoop=1;jettySize=auto;html=1;entryX=0.5;entryY=0;entryDx=0;entryDy=0;fontFamily=Times New Roman;" edge="1" parent="GROmLuucrpIzbbb9Cq5b-37" source="GROmLuucrpIzbbb9Cq5b-58" target="GROmLuucrpIzbbb9Cq5b-62">
          <mxGeometry relative="1" as="geometry" />
        </mxCell>
        <mxCell id="GROmLuucrpIzbbb9Cq5b-58" value="Prediction&lt;div&gt;(Class Name)&lt;/div&gt;" style="shape=parallelogram;perimeter=parallelogramPerimeter;whiteSpace=wrap;html=1;fixedSize=1;fontFamily=Times New Roman;fillColor=#fff2cc;strokeColor=#d6b656;" vertex="1" parent="GROmLuucrpIzbbb9Cq5b-37">
          <mxGeometry x="25" y="255" width="120" height="40" as="geometry" />
        </mxCell>
        <mxCell id="GROmLuucrpIzbbb9Cq5b-59" style="edgeStyle=orthogonalEdgeStyle;rounded=0;orthogonalLoop=1;jettySize=auto;html=1;exitX=0.5;exitY=1;exitDx=0;exitDy=0;entryX=0.5;entryY=0;entryDx=0;entryDy=0;fontFamily=Times New Roman;" edge="1" parent="GROmLuucrpIzbbb9Cq5b-37" source="GROmLuucrpIzbbb9Cq5b-60" target="GROmLuucrpIzbbb9Cq5b-62">
          <mxGeometry relative="1" as="geometry" />
        </mxCell>
        <mxCell id="GROmLuucrpIzbbb9Cq5b-60" value="Detailed&amp;nbsp;&lt;div&gt;Prompt&lt;/div&gt;" style="shape=parallelogram;perimeter=parallelogramPerimeter;whiteSpace=wrap;html=1;fixedSize=1;fontFamily=Times New Roman;fillColor=#fff2cc;strokeColor=#d6b656;" vertex="1" parent="GROmLuucrpIzbbb9Cq5b-37">
          <mxGeometry x="185" y="255" width="120" height="40" as="geometry" />
        </mxCell>
        <mxCell id="GROmLuucrpIzbbb9Cq5b-61" value="" style="edgeStyle=orthogonalEdgeStyle;rounded=0;orthogonalLoop=1;jettySize=auto;html=1;" edge="1" parent="GROmLuucrpIzbbb9Cq5b-37" source="GROmLuucrpIzbbb9Cq5b-62" target="GROmLuucrpIzbbb9Cq5b-64">
          <mxGeometry relative="1" as="geometry" />
        </mxCell>
        <mxCell id="GROmLuucrpIzbbb9Cq5b-62" value="Payload" style="shape=parallelogram;perimeter=parallelogramPerimeter;whiteSpace=wrap;html=1;fixedSize=1;fontFamily=Times New Roman;fillColor=#ffe6cc;strokeColor=#d79b00;" vertex="1" parent="GROmLuucrpIzbbb9Cq5b-37">
          <mxGeometry x="105" y="335" width="120" height="40" as="geometry" />
        </mxCell>
        <mxCell id="GROmLuucrpIzbbb9Cq5b-63" style="edgeStyle=orthogonalEdgeStyle;rounded=0;orthogonalLoop=1;jettySize=auto;html=1;fontFamily=Times New Roman;" edge="1" parent="GROmLuucrpIzbbb9Cq5b-37" source="GROmLuucrpIzbbb9Cq5b-64" target="GROmLuucrpIzbbb9Cq5b-66">
          <mxGeometry relative="1" as="geometry" />
        </mxCell>
        <mxCell id="GROmLuucrpIzbbb9Cq5b-64" value="Llama-3.1-Nemotron 70B" style="rounded=1;whiteSpace=wrap;html=1;fontFamily=Times New Roman;fillColor=#6a00ff;fontColor=#ffffff;strokeColor=#3700CC;" vertex="1" parent="GROmLuucrpIzbbb9Cq5b-37">
          <mxGeometry x="255" y="335" width="100" height="40" as="geometry" />
        </mxCell>
        <mxCell id="GROmLuucrpIzbbb9Cq5b-65" value="" style="edgeStyle=orthogonalEdgeStyle;rounded=0;orthogonalLoop=1;jettySize=auto;html=1;fontFamily=Times New Roman;" edge="1" parent="GROmLuucrpIzbbb9Cq5b-37" source="GROmLuucrpIzbbb9Cq5b-66" target="GROmLuucrpIzbbb9Cq5b-67">
          <mxGeometry relative="1" as="geometry" />
        </mxCell>
        <mxCell id="GROmLuucrpIzbbb9Cq5b-66" value="Diagnostic&amp;nbsp;&lt;div&gt;Report&lt;/div&gt;" style="shape=parallelogram;perimeter=parallelogramPerimeter;whiteSpace=wrap;html=1;fixedSize=1;fontFamily=Times New Roman;fillColor=#60a917;fontColor=#ffffff;strokeColor=#2D7600;gradientColor=light-dark(#053306, #ededed);rounded=1;" vertex="1" parent="GROmLuucrpIzbbb9Cq5b-37">
          <mxGeometry x="375" y="335" width="120" height="40" as="geometry" />
        </mxCell>
        <mxCell id="GROmLuucrpIzbbb9Cq5b-67" value="Display&amp;nbsp;&lt;div&gt;Report&lt;/div&gt;" style="rounded=1;whiteSpace=wrap;html=1;fontFamily=Times New Roman;fillColor=#d5e8d4;strokeColor=#82b366;" vertex="1" parent="GROmLuucrpIzbbb9Cq5b-37">
          <mxGeometry x="385" y="265" width="100" height="40" as="geometry" />
        </mxCell>
        <mxCell id="GROmLuucrpIzbbb9Cq5b-68" value="&lt;font style=&quot;font-size: 20px;&quot; face=&quot;Times New Roman&quot;&gt;&lt;u&gt;FailGuard AI&lt;/u&gt;&lt;/font&gt;" style="text;html=1;align=center;verticalAlign=middle;resizable=0;points=[];autosize=1;strokeColor=none;fillColor=none;" vertex="1" parent="GROmLuucrpIzbbb9Cq5b-37">
          <mxGeometry x="187.5" width="130" height="40" as="geometry" />
        </mxCell>
        <mxCell id="GROmLuucrpIzbbb9Cq5b-69" value="True" style="text;html=1;align=center;verticalAlign=middle;resizable=0;points=[];autosize=1;strokeColor=none;fillColor=none;fontFamily=Times New Roman;" vertex="1" parent="GROmLuucrpIzbbb9Cq5b-37">
          <mxGeometry x="365" y="155" width="50" height="30" as="geometry" />
        </mxCell>
      </root>
    </mxGraphModel>
  </diagram>
</mxfile>
